<svg width="17" height="21" viewBox="0 0 17 21" fill="none" xmlns="http://www.w3.org/2000/svg">
<path fill-rule="evenodd" clip-rule="evenodd" d="M16.5356 6.67157L13.3536 9.85355C13.1583 10.0488 12.8417 10.0488 12.6465 9.85355L9.46449 6.67157C9.26923 6.47631 9.26923 6.15973 9.46449 5.96447C9.65975 5.7692 9.97634 5.7692 10.1716 5.96447L12.5 8.29289V0.5H13.5V8.29289L15.8285 5.96447C16.0237 5.7692 16.3403 5.7692 16.5356 5.96447C16.7308 6.15973 16.7308 6.47631 16.5356 6.67157Z" fill="#FF0000"/>
<path fill-rule="evenodd" clip-rule="evenodd" d="M0.46444 3.32843L3.64642 0.146446C3.84168 -0.0488155 4.15827 -0.0488155 4.35353 0.146446L7.53551 3.32843C7.73077 3.52369 7.73077 3.84027 7.53551 4.03553C7.34025 4.2308 7.02366 4.2308 6.8284 4.03553L4.49997 1.70711V9.5H3.49997V1.70711L1.17155 4.03553C0.976285 4.2308 0.659702 4.2308 0.46444 4.03553C0.269178 3.84027 0.269178 3.52369 0.46444 3.32843Z" fill="#FF0000"/>
<path d="M0 12.5C0 11.9477 0.447715 11.5 1 11.5H15C15.5523 11.5 16 11.9477 16 12.5V19.5C16 20.0523 15.5523 20.5 15 20.5H1C0.447715 20.5 0 20.0523 0 19.5V12.5Z" fill="#FF0000"/>
</svg>
