<svg width="24" height="24" viewBox="0 0 24 24" fill="currentColor" xmlns="http://www.w3.org/2000/svg">
<path d="M2.37653 4.29114C0.564353 6.72391 -0.259198 9.75277 0.0715871 12.7682C0.402372 15.7837 1.86294 18.5619 4.15941 20.544C6.45589 22.5261 9.41782 23.5648 12.4492 23.4513C15.4807 23.3377 18.3566 22.0803 20.4983 19.932L18.9983 17.4513C17.408 19.0465 14.5846 20.2798 12.3336 20.3641C10.0826 20.4484 7.8832 19.6771 6.17794 18.2053C4.47269 16.7335 3.38813 14.6705 3.14251 12.4313C2.89688 10.1922 2.58438 8.50356 3.93002 6.6971L2.37653 4.29114Z"/>
<path d="M2.37653 4.29114L8.49832 12.4513L3.14251 12.4313L2.37653 4.29114Z"/>
<path d="M21.1068 19.1982C22.9264 16.7711 23.7593 13.7448 23.4378 10.7283C23.1164 7.71187 21.6644 4.92908 19.374 2.93994C17.0837 0.950796 14.125 -0.0971131 11.0932 0.00708786C8.06147 0.111289 5.18168 1.35987 3.03332 3.50156L4.99832 5.9513C4.99832 5.9513 8.9481 3.17198 11.1993 3.09461C13.4506 3.01723 15.6476 3.79536 17.3483 5.27241C19.049 6.74945 20.1272 8.81583 20.3659 11.0557C20.6046 13.2956 20.3495 13.6706 18.9983 15.4729L21.1068 19.1982Z"/>
<path d="M21.1068 19.1982L16.4983 11.0557H20.3659L21.1068 19.1982Z"/>
</svg>
