<svg width="36" height="36" viewBox="0 0 36 36" fill="none" xmlns="http://www.w3.org/2000/svg">
<mask id="path-1-inside-1_32_13" fill="white">
<path d="M33.1721 10.3314C33.665 10.0823 33.8651 9.47909 33.5889 9.00078C32.1405 6.49164 30.1049 4.36464 27.651 2.80597C24.9153 1.06827 21.7611 0.101437 18.5214 0.00755364C15.2818 -0.0863298 12.0769 0.696215 9.24513 2.27258C6.41333 3.84894 4.05968 6.16064 2.43263 8.96362C0.805586 11.7666 -0.0344796 14.9569 0.00111618 18.1977C0.0367119 21.4385 0.946649 24.6096 2.63487 27.3761C4.32309 30.1427 6.72695 32.4021 9.59269 33.9159C12.1632 35.2737 15.0197 35.9864 17.9169 35.9998C18.4692 36.0024 18.8937 35.5295 18.8656 34.978L18.7544 32.796C18.7262 32.2445 18.2559 31.8239 17.7037 31.8121C15.56 31.7661 13.4514 31.2215 11.5473 30.2157C9.34778 29.0539 7.50278 27.3197 6.20704 25.1963C4.91131 23.0729 4.21292 20.6391 4.1856 18.1517C4.15828 15.6644 4.80304 13.2158 6.05183 11.0645C7.30061 8.91312 9.10707 7.13886 11.2805 5.92898C13.454 4.71909 15.9138 4.11848 18.4002 4.19054C20.8867 4.26259 23.3076 5.00465 25.4073 6.33836C27.225 7.49295 28.7437 9.05386 29.8468 10.8926C30.131 11.3662 30.7294 11.5661 31.2223 11.3169L33.1721 10.3314Z"/>
</mask>
<path d="M33.1721 10.3314C33.665 10.0823 33.8651 9.47909 33.5889 9.00078C32.1405 6.49164 30.1049 4.36464 27.651 2.80597C24.9153 1.06827 21.7611 0.101437 18.5214 0.00755364C15.2818 -0.0863298 12.0769 0.696215 9.24513 2.27258C6.41333 3.84894 4.05968 6.16064 2.43263 8.96362C0.805586 11.7666 -0.0344796 14.9569 0.00111618 18.1977C0.0367119 21.4385 0.946649 24.6096 2.63487 27.3761C4.32309 30.1427 6.72695 32.4021 9.59269 33.9159C12.1632 35.2737 15.0197 35.9864 17.9169 35.9998C18.4692 36.0024 18.8937 35.5295 18.8656 34.978L18.7544 32.796C18.7262 32.2445 18.2559 31.8239 17.7037 31.8121C15.56 31.7661 13.4514 31.2215 11.5473 30.2157C9.34778 29.0539 7.50278 27.3197 6.20704 25.1963C4.91131 23.0729 4.21292 20.6391 4.1856 18.1517C4.15828 15.6644 4.80304 13.2158 6.05183 11.0645C7.30061 8.91312 9.10707 7.13886 11.2805 5.92898C13.454 4.71909 15.9138 4.11848 18.4002 4.19054C20.8867 4.26259 23.3076 5.00465 25.4073 6.33836C27.225 7.49295 28.7437 9.05386 29.8468 10.8926C30.131 11.3662 30.7294 11.5661 31.2223 11.3169L33.1721 10.3314Z" stroke="#727C94" stroke-width="8" mask="url(#path-1-inside-1_32_13)"/>
<mask id="path-2-inside-2_32_13" fill="white">
<path d="M33.8266 11.7937C34.3408 11.5921 34.9239 11.8447 35.0966 12.3693C35.8386 14.6222 36.1291 17.0028 35.9475 19.3743C35.7404 22.0787 34.9248 24.7013 33.5617 27.0462C32.1986 29.3911 30.3232 31.3976 28.0756 32.9158C26.1046 34.2472 23.8922 35.1729 21.5673 35.643C21.026 35.7524 20.5179 35.3707 20.4387 34.8242L20.1181 32.6125C20.0389 32.0659 20.4189 31.5623 20.9583 31.4436C22.652 31.0709 24.2631 30.3808 25.7051 29.4067C27.4239 28.2456 28.8581 26.7112 29.9005 24.918C30.943 23.1247 31.5667 21.1191 31.725 19.051C31.8579 17.3159 31.6603 15.5743 31.1461 13.9181C30.9823 13.3907 31.2319 12.8112 31.7461 12.6096L33.8266 11.7937Z"/>
</mask>
<path d="M33.8266 11.7937C34.3408 11.5921 34.9239 11.8447 35.0966 12.3693C35.8386 14.6222 36.1291 17.0028 35.9475 19.3743C35.7404 22.0787 34.9248 24.7013 33.5617 27.0462C32.1986 29.3911 30.3232 31.3976 28.0756 32.9158C26.1046 34.2472 23.8922 35.1729 21.5673 35.643C21.026 35.7524 20.5179 35.3707 20.4387 34.8242L20.1181 32.6125C20.0389 32.0659 20.4189 31.5623 20.9583 31.4436C22.652 31.0709 24.2631 30.3808 25.7051 29.4067C27.4239 28.2456 28.8581 26.7112 29.9005 24.918C30.943 23.1247 31.5667 21.1191 31.725 19.051C31.8579 17.3159 31.6603 15.5743 31.1461 13.9181C30.9823 13.3907 31.2319 12.8112 31.7461 12.6096L33.8266 11.7937Z" stroke="#43D1A7" stroke-width="8" mask="url(#path-2-inside-2_32_13)"/>
</svg>
