<svg width="23" height="25" viewBox="0 0 23 25" fill="none" xmlns="http://www.w3.org/2000/svg">
<path d="M23 7C23 10.866 19.866 14 16 14C12.134 14 9 10.866 9 7C9 3.13401 12.134 0 16 0C19.866 0 23 3.13401 23 7Z" fill="#D9D9D9"/>
<path d="M11 17.5C11 20.5376 8.53757 23 5.5 23C2.46243 23 0 20.5376 0 17.5C0 14.4624 2.46243 12 5.5 12C8.53757 12 11 14.4624 11 17.5Z" fill="#D9D9D9"/>
<path d="M22 20.5C22 22.9853 19.9853 25 17.5 25C15.0147 25 13 22.9853 13 20.5C13 18.0147 15.0147 16 17.5 16C19.9853 16 22 18.0147 22 20.5Z" fill="#D9D9D9"/>
</svg>
