<svg width="25" height="33" viewBox="0 0 25 33" fill="currentColor" xmlns="http://www.w3.org/2000/svg">
<path d="M12.5 32.25C18.9919 32.25 24.25 26.9308 24.25 20.375C24.25 18.7176 23.6343 16.6658 22.7016 14.5387C21.7663 12.4056 20.5012 10.1721 19.1782 8.14329C17.8552 6.11459 16.4702 4.28433 15.2924 2.95842C14.704 2.29611 14.1628 1.75444 13.7033 1.37616C13.4738 1.1872 13.2594 1.03455 13.0654 0.92795C12.8769 0.824307 12.6826 0.749987 12.5 0.749993C12.3174 0.749998 12.1231 0.824324 11.9346 0.927972C11.7406 1.03458 11.5262 1.18723 11.2967 1.37619C10.8372 1.75448 10.296 2.29616 9.70763 2.95847C8.52981 4.28438 7.14483 6.11465 5.82184 8.14333C4.4988 10.1721 3.23367 12.4056 2.29839 14.5387C1.36571 16.6658 0.75 18.7176 0.75 20.375C0.75 26.9308 6.00811 32.25 12.5 32.25Z" stroke="#3851D9" stroke-width="0.5"/>
</svg>
