<svg width="20" height="16" viewBox="0 0 20 16" fill="currentColor" xmlns="http://www.w3.org/2000/svg">
<path d="M11.0979 13.0931C10.2945 14.0996 8.7631 14.0955 7.96505 13.0848L3.07512 6.89148C1.50444 4.90216 2.15644 1.9722 4.42247 0.836643L4.9795 0.557506C5.65253 0.220234 6.44726 0.117458 7.10115 0.490493C7.54129 0.741583 7.96416 1.09224 8.03174 1.53302C8.11647 2.08565 7.6263 2.67286 7.1937 3.0726C6.82413 3.41411 6.5191 3.83385 6.40183 4.3232L6.25624 4.93075C6.09667 5.59659 6.28882 6.29778 6.76551 6.78927L7.41073 7.45451C7.78741 7.84288 8.30535 8.06207 8.84639 8.06207L10.0958 8.06207C10.6889 8.06207 11.2514 8.32528 11.6314 8.78062L13.1181 10.5621L13.9658 9.5L12.1318 7.26452C11.752 6.80145 11.1845 6.53302 10.5856 6.53302L9.49176 6.53302C9.16889 6.53302 8.85096 6.45358 8.56603 6.30171L8.32969 6.17573C8.11544 6.06153 7.94298 5.88226 7.83717 5.66375C7.64968 5.27657 7.69474 4.81702 7.95386 4.47363L9 3.08732L10.0317 1.53302L11.1593 0.85495C12.0139 0.341052 13.068 0.285368 13.9719 0.70637L14.4744 0.940405C16.8227 2.03404 17.5279 5.03719 15.9119 7.06174L11.0979 13.0931Z"/>
</svg>
