<svg width="16" height="16" viewBox="0 0 16 16" fill="currentColor" xmlns="http://www.w3.org/2000/svg">
<path d="M3.5 15.5H1V13.5L4.5 10.5L7 9V7L4 7.5L1 4.5L0 2.5V0L2 1.5L3 2.5L6.5 6L7 7L8.5 7.5L9.5 6.5L9.07325 5.21974C8.72192 4.16577 8.99624 3.00376 9.78182 2.21818L9.83421 2.16579C10.9008 1.0992 12.3474 0.5 13.8558 0.5H13.9503C14.8395 0.5 15.5934 1.15385 15.7192 2.03412C15.898 3.28566 15.538 4.55435 14.7287 5.52557L14.6376 5.63484C13.9037 6.51558 12.878 7.10366 11.7471 7.29214L10.5 7.5L9.5 8.5L12 11L14.5 13.5V15.5H12.5L10.5 12.5L8 10L6.5 12L3.5 15.5Z" />
</svg>
