<svg width="16" height="17" viewBox="0 0 16 17" fill="none" xmlns="http://www.w3.org/2000/svg">
<path d="M0 7.68034C0 6.90411 0.180726 6.13855 0.527864 5.44427L1.77785 2.94431C1.92373 2.65254 2.13877 2.40088 2.40422 2.21127L4.89585 0.431537C5.28562 0.153128 5.76237 0.0238518 6.2394 0.0672178L11 0.5L16 0L15.2233 5.04846C15.0766 6.00208 14.7021 6.90625 14.1315 7.6843L10.0993 13.1827C9.72258 13.6965 9.12361 14 8.48652 14H5.5C4.94772 14 4.5 13.5523 4.5 13V11L7.22326 7.82286C7.40184 7.61452 7.5 7.34917 7.5 7.07476C7.5 6.75733 7.24267 6.5 6.92524 6.5H6.71365C6.26014 6.5 5.8287 6.69577 5.53006 7.03707L2.99485 9.93446C2.67584 10.299 2.5 10.767 2.5 11.2515V17H0V7.68034Z" fill="#00501B"/>
</svg>
