<svg width="45" height="25" viewBox="0 0 45 25" fill="currentColor" xmlns="http://www.w3.org/2000/svg">
<g clip-path="url(#clip0_32_14)">
<path d="M15.2458 6.20573C15.2458 6.1962 15.2458 6.18667 15.2458 6.17987C15.2458 5.72775 15.3058 5.29333 15.4112 4.86845C16.1167 2.08493 19.0243 0 22.4984 0C26.0012 0 28.9256 2.11353 29.6048 4.92837C29.6975 5.31784 29.7486 5.72367 29.7502 6.13766C29.7502 6.15126 29.7534 6.16625 29.7534 6.17987C29.7534 9.31201 27.0152 11.8954 23.47 12.2998C23.1512 12.3352 22.8292 12.3611 22.4984 12.3611C22.2076 12.3611 21.9263 12.3448 21.6459 12.3148C18.0535 11.9539 15.2626 9.36105 15.2458 6.20573Z" />
<path d="M5.82316 14.6667L8.73556 17.9717L11.648 14.6667C11.9891 14.7688 12.3143 14.8954 12.6371 15.033C10.3024 17.028 8.85303 19.7898 8.85303 22.8511V25H1.04904e-05V21.7916C1.04904e-05 18.4974 2.4338 15.7057 5.82316 14.6667Z" />
<path d="M12.8648 6.26701C13.039 6.44132 13.1972 6.6238 13.3386 6.81854C13.8676 7.53349 14.1792 8.37644 14.1792 9.28204C14.1792 9.55713 14.1472 9.82404 14.0929 10.0828C13.9035 11.0034 13.4009 11.8259 12.6771 12.4728C12.3007 12.8132 11.8652 13.1033 11.3826 13.3348C10.5988 13.7065 9.69835 13.919 8.73556 13.919C5.73209 13.919 3.29351 11.8436 3.29351 9.28204C3.29351 7.16443 4.96261 5.37912 7.23819 4.82487C7.43156 4.77993 7.6297 4.74315 7.82867 4.71319C7.99005 4.6914 8.15148 4.67507 8.31525 4.66417C8.45431 4.65599 8.59249 4.64374 8.73556 4.64374C10.3903 4.64374 11.8669 5.27562 12.8648 6.26701Z" />
<path d="M39.1784 14.6667L36.2645 17.9717L33.3521 14.6667C33.0109 14.7688 32.6857 14.8954 32.3629 15.033C34.7 17.028 36.1478 19.7898 36.1478 22.8511V25H45V21.7916C45 18.4974 42.5662 15.7057 39.1784 14.6667Z" />
<path d="M32.136 6.26701C31.9618 6.44132 31.802 6.6238 31.6598 6.81854C31.1325 7.53349 30.8225 8.37644 30.8225 9.28204C30.8225 9.55713 30.8544 9.82404 30.9087 10.0828C31.0965 11.0034 31.5991 11.8259 32.323 12.4728C32.7001 12.8132 33.1348 13.1033 33.6174 13.3348C34.4012 13.7065 35.3017 13.919 36.2645 13.919C39.2679 13.919 41.7065 11.8436 41.7065 9.28204C41.7065 7.16443 40.0366 5.37912 37.761 4.82487C37.5693 4.77993 37.3719 4.74315 37.1682 4.71319C37.0132 4.6914 36.8486 4.67507 36.6848 4.66417C36.5457 4.65599 36.4075 4.64374 36.2645 4.64374C34.6113 4.64374 33.1332 5.27562 32.136 6.26701Z" />
<path d="M15.0054 15.1528C15.7731 14.5918 16.6289 14.1192 17.547 13.742C17.897 13.5976 18.2509 13.4669 18.62 13.3525L19.5564 14.4202L21.6459 16.791L22.5024 17.762L23.47 16.6631L25.4148 14.4515L26.38 13.3525C26.7651 13.4737 27.1414 13.614 27.5082 13.7651C28.4262 14.145 29.2772 14.6203 30.0458 15.1882C30.4693 15.5 30.8672 15.8419 31.2339 16.2041C33.0405 17.9745 34.1439 20.2991 34.1439 22.8511V25H10.8561V22.8511C10.8561 20.2786 11.9755 17.9404 13.8101 16.1578C14.1792 15.7996 14.5787 15.4647 15.0054 15.1528Z" />
</g>
<defs>
<clipPath id="clip0_32_14">
<rect width="45" height="25" fill="white" transform="matrix(-1 0 0 1 45 0)"/>
</clipPath>
</defs>
</svg>
