<svg width="26" height="24" viewBox="0 0 26 24" fill="none" xmlns="http://www.w3.org/2000/svg">
<path d="M11.1953 7.10928C10.9648 7.1185 10.6269 7.39456 10.5053 7.57927C10.3779 7.77291 10.3227 8.00313 10.2287 8.21259C10.1404 8.40921 10.0343 8.59754 9.96534 8.80257C9.81883 9.23793 9.7327 9.69897 9.62868 10.1459C9.50836 10.6628 9.37696 11.1397 9.34202 11.6725C9.31436 12.0943 9.29735 12.5773 9.46202 12.9725C9.70187 13.5481 10.2026 14.0223 10.7087 14.3624C11.7819 15.0839 13.0431 15.5691 14.3402 15.5691C15.4898 15.5691 17.0218 15.6255 17.5985 14.4124C17.7489 14.096 17.8293 13.7613 17.9168 13.4241C18.0072 13.0764 18.1053 12.7494 18.1385 12.3892C18.1916 11.8121 18.2341 11.1799 18.1402 10.6059C18.0411 10.0004 17.7198 9.54473 17.4335 9.01424C17.2263 8.63028 16.9058 8.34432 16.5902 8.04926C16.2617 7.7421 15.9352 7.46409 15.5219 7.27427C14.9804 7.02557 14.4251 6.94658 13.8336 6.91095C13.3575 6.88227 12.8423 6.84472 12.3686 6.93261C12.2248 6.9593 11.9423 6.99525 11.842 7.12428C11.759 7.23092 11.6918 7.28927 11.8553 7.28927M15.6951 6.26931C16.0102 6.21203 16.1438 5.61327 16.2384 5.37933C16.4449 4.86874 16.7451 4.45883 16.7451 3.8927C16.7451 3.79793 16.7681 3.66842 16.7384 3.57604C16.7237 3.53031 16.6752 3.52799 16.6551 3.49271C16.6285 3.44626 16.6054 3.45545 16.5584 3.44938C16.4036 3.42941 16.2399 3.27283 16.1117 3.19272C15.8517 3.03021 15.5528 2.83305 15.4184 2.5494C15.3135 2.3278 15.7981 2.71643 15.8301 2.73606C16.2033 2.96509 16.575 3.19215 16.9401 3.43438C17.3209 3.68709 17.6803 3.97869 18.075 4.20936C18.2647 4.32019 18.4769 4.42732 18.6917 4.48102C18.7491 4.49538 18.872 4.52481 18.815 4.43936M19.0852 9.3892C19.0852 9.45909 19.1156 9.45197 19.1819 9.4292C19.5067 9.31753 19.8304 9.19628 20.1552 9.08254C20.7672 8.86821 21.4041 8.69026 21.9968 8.42589C22.1974 8.33643 22.5483 8.17781 22.6842 7.94356M22.6842 7.94356C22.7255 7.87247 22.747 7.79443 22.7385 7.70924C22.7149 7.47334 22.4716 7.20844 22.2785 7.03633M22.6842 7.94356C22.5421 7.64336 22.4186 7.3366 22.2785 7.03633M22.6842 7.94356C22.7041 7.98559 22.7244 8.02749 22.7451 8.06923C22.9616 8.50517 23.2346 8.92379 23.4318 9.36753C23.5127 9.54965 23.2744 9.00133 23.1934 8.81921C23.1785 8.78555 22.9817 8.44253 23.0751 8.48922M22.2785 7.03633C22.2542 7.01464 22.2307 6.99442 22.2085 6.97592C22.1477 6.92524 22.1048 6.68776 22.1285 6.73259C22.1813 6.83275 22.2309 6.93416 22.2785 7.03633ZM18.5151 13.7091C18.6484 13.9756 18.9906 14.1125 19.2418 14.2341C19.6246 14.4194 20.0266 14.5544 20.4151 14.7257C20.876 14.9291 21.3188 15.1393 21.7201 15.4474C21.9797 15.6467 22.2697 15.814 22.5184 16.0257C22.5243 16.0307 22.5561 16.064 22.5995 16.1073M22.5995 16.1073C22.7093 16.2168 22.8932 16.3899 22.9184 16.329C23.0682 15.9669 23.2492 15.5848 23.5317 15.3057C23.7189 15.1208 23.9154 14.9531 24.095 14.7591C24.1062 14.747 24.4136 14.3224 24.335 14.3224C24.3005 14.3224 24.3141 14.3884 24.2983 14.4191C24.2378 14.5369 24.139 14.6331 24.05 14.7291C23.7215 15.0833 23.3737 15.4014 23.0084 15.7157C22.8648 15.8393 22.7291 15.9705 22.5995 16.1073ZM22.5995 16.1073C22.4415 16.274 22.2923 16.4492 22.1484 16.629C22.0221 16.7869 21.9113 16.9728 21.7684 17.1157C21.6616 17.2225 21.5205 17.252 21.4851 17.429M15.3052 16.5891C15.3052 16.7431 15.3684 16.8755 15.4268 17.0157C15.636 17.5176 15.8317 18.0337 15.9885 18.554C16.1502 19.0905 16.2927 19.6336 16.4985 20.1556C16.6651 20.5782 16.7861 20.9708 16.8718 21.4156C16.8828 21.4727 16.8933 21.5298 16.9044 21.5866M16.9044 21.5866C16.9341 21.7397 16.9678 21.8912 17.0251 22.0373C17.0609 22.1282 16.9628 22.0482 16.9268 22.0306C16.7928 21.9649 16.6574 21.934 16.5101 21.9156C16.3177 21.8915 16.1774 21.9284 15.9952 21.9823C15.9551 21.9941 15.9104 22.0018 15.8645 22.0092M16.9044 21.5866C16.8102 21.6127 16.7224 21.6368 16.6535 21.6639C16.3856 21.7694 16.1238 21.8849 15.8645 22.0092M16.9044 21.5866C17.1426 21.5206 17.422 21.4419 17.5418 21.2689C17.5749 21.2212 17.5882 21.0636 17.6218 21.0356C17.6815 20.9858 17.8919 21.0247 17.9751 20.9956C18.1038 20.9506 18.2982 20.8914 18.4051 20.804C18.5198 20.7101 18.2949 20.759 18.2751 20.759M15.8645 22.0092C15.7754 22.0236 15.6823 22.0372 15.6118 22.0789C15.6017 22.0849 15.4973 22.1404 15.5552 22.1339C15.6475 22.1237 15.7419 22.0684 15.8235 22.0289C15.8372 22.0223 15.8509 22.0157 15.8645 22.0092ZM10.5952 15.7491C9.92726 16.4342 9.61649 17.3854 9.21527 18.239C8.87398 18.9652 8.34817 19.582 8.09196 20.3506C8.06449 20.4331 7.93751 20.9502 7.79366 21.2912M7.79366 21.2912C7.70709 21.4964 7.61441 21.6378 7.53364 21.5823C7.40988 21.4972 7.29047 21.4075 7.16198 21.329C7.00208 21.2312 6.87653 21.1025 6.72366 21.0006C6.69232 20.9797 6.47937 20.8131 6.62533 20.8923C6.83426 21.0056 7.02375 21.0932 7.25531 21.1556C7.43349 21.2036 7.61308 21.2487 7.79366 21.2912ZM7.79366 21.2912C8.49309 21.4558 9.20741 21.5831 9.91192 21.7023C9.98991 21.7155 10.4177 21.8398 10.1453 21.749M8.5254 13.1992C8.03947 13.5951 7.49305 13.9196 6.91543 14.1608C5.65274 14.6881 4.24165 14.8332 2.92219 15.1724C2.90106 15.1779 2.87995 15.1837 2.85885 15.1899M2.85885 15.1899C2.62056 15.2599 2.38408 15.3719 2.13554 15.3874L2.12963 15.3878C1.97776 15.3973 1.95736 15.3986 2.07887 15.2958C2.2556 15.1462 2.33983 15.0031 2.4072 14.7841C2.44509 14.661 2.47671 14.541 2.49383 14.4202M2.85885 15.1899C2.77151 15.038 2.69333 14.8809 2.61886 14.7175C2.5748 14.6208 2.53306 14.5212 2.49383 14.4202M2.85885 15.1899C2.93691 15.3257 3.02228 15.4574 3.11885 15.5858C3.25601 15.7681 3.40865 15.9361 3.51551 16.1391C3.57279 16.2479 3.63551 16.3417 3.63551 16.4691M2.49383 14.4202C2.51495 14.2712 2.514 14.121 2.47553 13.9625C2.44856 13.8513 2.40548 13.7058 2.31554 13.6258C2.29827 13.6105 2.25704 13.5852 2.25554 13.6258C2.25155 13.7335 2.30127 13.8513 2.3322 13.9525C2.37976 14.1081 2.43386 14.2658 2.49383 14.4202ZM9.15525 9.77925C8.75422 9.77925 8.37833 9.47191 8.0436 9.28426C7.51581 8.98838 6.98893 8.81167 6.40864 8.66261C5.88756 8.52875 5.38568 8.35429 4.92701 8.06762C4.70992 7.93194 4.5153 7.76148 4.30202 7.6193C4.26698 7.59593 4.13036 7.52647 4.0118 7.4565M4.0118 7.4565C3.9103 7.39661 3.82203 7.33634 3.82203 7.3043C3.82203 7.24914 4.25871 7.14456 4.30869 7.12264C4.32336 7.1162 4.3393 7.10962 4.35623 7.10285M4.0118 7.4565C4.11962 7.33672 4.23377 7.22036 4.35623 7.10285M4.0118 7.4565C3.82654 7.66232 3.65996 7.87827 3.50204 8.12762C3.35778 8.35539 3.11843 8.58542 3.04205 8.84927C3.01266 8.95079 3.0238 8.94203 3.08205 8.8626C3.16245 8.75297 3.24915 8.65275 3.33538 8.54927M4.35623 7.10285C4.529 7.03371 4.8045 6.94452 4.88201 6.78598C4.89302 6.76346 4.95006 6.6229 4.91201 6.60599C4.79342 6.55328 4.47051 6.99443 4.40369 7.05764C4.38773 7.07274 4.37191 7.0878 4.35623 7.10285ZM11.4953 6.62926C11.1692 6.28145 10.8738 5.83899 10.642 5.42262C10.4706 5.11487 10.4267 4.80367 10.342 4.46931C10.2742 4.20178 10.1518 3.94894 10.1037 3.676C10.0478 3.35954 10.0268 3.06122 9.94028 2.75027M9.94028 2.75027C9.93865 2.74441 9.937 2.73855 9.93532 2.73268C9.93371 2.72703 9.92916 2.72073 9.92336 2.71436M9.94028 2.75027C9.96174 2.74396 9.98341 2.73807 10.0053 2.73268C10.0587 2.71958 10.3014 2.69935 10.1137 2.69935C10.0692 2.69935 10.0247 2.68919 9.98101 2.6807M9.94028 2.75027C9.86713 2.77179 9.79636 2.7982 9.72623 2.82598M9.92336 2.71436C9.90329 2.6923 9.86831 2.66935 9.88866 2.66935C9.91875 2.66935 9.94966 2.67459 9.98101 2.6807M9.92336 2.71436C9.858 2.75242 9.79238 2.79016 9.72623 2.82598M9.92336 2.71436C9.9426 2.70315 9.96181 2.69192 9.98101 2.6807M9.98101 2.6807C10.0914 2.61617 10.2013 2.55205 10.312 2.49602C10.526 2.3877 10.7857 2.28618 10.9353 2.08937C10.9442 2.07772 11.0177 1.96773 11.0153 2.00937C11.0093 2.11062 10.8441 2.21055 10.7753 2.27936M9.72623 2.82598C9.61337 2.87069 9.50216 2.91893 9.38534 2.95601C9.26377 2.99461 9.30188 3.01481 9.40534 2.97601C9.51437 2.93512 9.62097 2.88298 9.72623 2.82598ZM12.019 9.65038L12.0002 9.63165M14.6216 10.2308H14.6403M14.2846 13.3016L14.2659 13.3203" stroke="#F80000" stroke-opacity="0.88" stroke-width="3" stroke-linecap="round"/>
</svg>
